o cylinder_obstacle
v 1.000000 0.000000 0.500000
v 0.866025 0.500000 0.500000
v 0.500000 0.866025 0.500000
v 0.000000 1.000000 0.500000
v -0.500000 0.866025 0.500000
v -0.866025 0.500000 0.500000
v -1.000000 0.000000 0.500000
v -0.866025 -0.500000 0.500000
v -0.500000 -0.866025 0.500000
v 0.000000 -1.000000 0.500000
v 0.500000 -0.866025 0.500000
v 0.866025 -0.500000 0.500000
v 1.000000 0.000000 -0.500000
v 0.866025 0.500000 -0.500000
v 0.500000 0.866025 -0.500000
v 0.000000 1.000000 -0.500000
v -0.500000 0.866025 -0.500000
v -0.866025 0.500000 -0.500000
v -1.000000 0.000000 -0.500000
v -0.866025 -0.500000 -0.500000
v -0.500000 -0.866025 -0.500000
v 0.000000 -1.000000 -0.500000
v 0.500000 -0.866025 -0.500000
v 0.866025 -0.500000 -0.500000
v 0.000000 0.000000 0.500000
v 0.000000 0.000000 -0.500000
f 1 2 14
f 1 14 13
f 2 3 15
f 2 15 14
f 3 4 16
f 3 16 15
f 4 5 17
f 4 17 16
f 5 6 18
f 5 18 17
f 6 7 19
f 6 19 18
f 7 8 20
f 7 20 19
f 8 9 21
f 8 21 20
f 9 10 22
f 9 22 21
f 10 11 23
f 10 23 22
f 11 12 24
f 11 24 23
f 12 1 13
f 12 13 24
f 25 2 1
f 25 3 2
f 25 4 3
f 25 5 4
f 25 6 5
f 25 7 6
f 25 8 7
f 25 9 8
f 25 10 9
f 25 11 10
f 25 12 11
f 25 1 12
f 26 13 14
f 26 14 15
f 26 15 16
f 26 16 17
f 26 17 18
f 26 18 19
f 26 19 20
f 26 20 21
f 26 21 22
f 26 22 23
f 26 23 24
f 26 24 13
